<svg width="71" height="70" viewBox="0 0 71 70" fill="none" xmlns="http://www.w3.org/2000/svg">
<path d="M36.2578 0C16.5098 0 0.5 16.0407 0.5 35.827C0.5 60.5606 17.3551 67.6424 28.7342 69.9809C28.7976 69.9939 28.8598 70 28.9183 70C29.7391 70 30.0632 68.8094 29.2326 68.4447C17.1887 63.1667 8.6758 51.0146 10.5124 36.6317C12.2938 22.6689 23.6531 11.5121 37.6165 9.96501C38.8014 9.8331 39.975 9.77099 41.1339 9.77099C53.3907 9.77099 63.9611 16.9293 68.9396 27.2996C69.1005 27.6335 69.3868 27.7799 69.6729 27.7799C70.1524 27.7799 70.6257 27.371 70.4697 26.7684C67.6318 15.8135 59.0128 0 36.2578 0ZM36.2578 3.257C46.283 3.257 53.1934 6.55929 57.9557 11.0051C52.9041 8.12427 47.1201 6.51399 41.1339 6.51399C39.8499 6.51399 38.5467 6.58697 37.2578 6.73028C21.8559 8.43695 9.25211 20.837 7.29031 36.2182C6.22895 44.5382 8.37752 52.6471 12.9854 59.2621C6.84643 53.8718 3.75071 46.0393 3.75071 35.827C3.75071 17.8679 18.3334 3.257 36.2578 3.257ZM42.7593 17.9135C28.9128 17.9135 17.7607 29.4775 18.4043 43.4924C18.9748 55.9325 29.1924 66.1682 41.6069 66.7398C41.9921 66.7594 42.3789 66.7684 42.7593 66.7684C56.2253 66.7684 67.1396 55.8331 67.1396 42.341C67.1396 40.4177 66.913 38.5471 66.492 36.7525C66.3961 36.347 66.0542 36.126 65.7015 36.126C65.4512 36.126 65.1994 36.2365 65.0222 36.4726C63.0961 39.0457 60.0319 40.7125 56.5748 40.7125C56.4074 40.7125 56.2391 40.7079 56.07 40.6997C50.9372 40.4604 46.5759 36.3446 46.0639 31.2214C45.6251 26.8342 47.8666 22.9331 51.34 20.9447C51.9528 20.5945 51.9015 19.7053 51.2416 19.4561C48.6004 18.4676 45.7467 17.9135 42.7593 17.9135ZM42.7593 21.1705C43.8011 21.1705 44.8383 21.248 45.8639 21.4027C43.5998 24.1972 42.4601 27.8312 42.8323 31.5458C43.5084 38.3041 49.135 43.6376 55.9208 43.9536C56.1403 43.9633 56.357 43.9695 56.5748 43.9695C59.216 43.9695 61.7257 43.2379 63.8825 41.8829C63.8858 42.036 63.8889 42.1879 63.8889 42.341C63.8889 54.014 54.4098 63.5114 42.7593 63.5114C42.4277 63.5114 42.0926 63.5038 41.7561 63.4892C30.9784 62.9925 22.1476 54.1446 21.6518 43.3461C21.3837 37.4932 23.4527 31.9453 27.4771 27.7226C31.5047 23.4983 36.9307 21.1705 42.7593 21.1705Z" fill="#362F92"/>
</svg>
