<svg width="71" height="70" viewBox="0 0 71 70" fill="none" xmlns="http://www.w3.org/2000/svg">
<path d="M15.5 0C7.23 0 0.5 6.72833 0.5 15V55C0.5 63.2717 7.23 70 15.5 70H55.5C63.77 70 70.5 63.2717 70.5 55V15C70.5 6.72833 63.77 0 55.5 0H15.5ZM15.5 3.33333H55.5C61.9333 3.33333 67.1667 8.56833 67.1667 15V55C67.1667 61.4317 61.9333 66.6667 55.5 66.6667H15.5C9.06667 66.6667 3.83333 61.4317 3.83333 55V15C3.83333 8.56833 9.06667 3.33333 15.5 3.33333ZM36.737 18.3561C28.047 18.3561 20.4282 22.8956 16.2682 29.6289C16.2016 29.7356 16.2767 29.8793 16.4017 29.8893L17.3555 30.2604C17.4771 30.2704 17.5915 30.2108 17.6582 30.1074C21.5732 23.8708 28.6316 19.681 36.7533 19.681C46.4166 19.681 54.5969 25.6007 57.7135 33.8607C57.7619 33.9873 57.8829 34.0723 58.0195 34.0723H59.0124C59.129 34.0723 59.2102 33.9544 59.1719 33.8444C55.9952 24.8477 47.142 18.3561 36.737 18.3561ZM12.8275 30.6771C12.0902 30.647 11.3066 30.6704 10.3991 30.7292C6.76909 30.9642 6.77177 32.7785 7.64844 32.8385C8.16677 32.8735 8.46023 32.9114 8.61523 32.9297C8.74523 32.9447 8.76396 32.9132 8.80729 32.8548C8.84396 32.8048 8.86057 32.7273 8.87891 32.6823C8.91057 32.6006 8.87411 32.5186 8.80078 32.487C8.72578 32.4536 7.88281 32.0801 7.88281 32.0801C7.88281 32.0801 12.4503 30.9089 18.127 33.6589C23.8036 36.4089 25.2668 39.9816 23.6868 41.7383C22.1068 43.4949 19.3572 44.3749 15.9622 43.6133C15.9039 41.2133 16.0208 39.4564 16.0208 39.4564C16.0208 39.4564 19.182 39.3369 20.002 39.9219C20.702 40.4219 20.2911 40.7523 19.8294 40.9473C19.7494 40.9806 19.7447 41.1237 19.8164 41.1654C20.4714 41.5287 20.9902 41.6135 21.4635 41.0352C21.9902 40.3918 22.5764 37.6408 16.138 37.8158C16.0214 36.7041 16.3748 35.9424 15.4382 34.8307C14.5015 33.7124 14.5007 37.8711 14.5007 37.8711C14.5007 37.8711 12.0994 38.219 10.1094 39.6256C8.11937 41.0323 14.2077 44.4271 14.2077 44.4271C14.2077 44.4271 14.3222 45.9496 15.2005 46.1263C16.0789 46.3013 16.0208 45.013 16.0208 45.013C16.0208 45.013 21.2884 46.5359 24.8034 43.4342C28.3134 40.3292 25.0336 35.3546 20.3503 33.0729C16.8378 31.3604 15.0392 30.7675 12.8275 30.6771ZM28.9701 31.4909C28.6683 31.4635 28.3152 31.491 27.9056 31.6081C26.2673 32.0764 24.219 34.2412 25.6823 35.6445C25.6823 36.2879 25.8571 37.5179 26.7337 36.4062C27.6687 36.8179 29.4846 36.5265 30.6562 35.3548C31.8263 34.1848 32.353 32.0155 30.3047 32.1322C30.3047 32.1322 29.8754 31.5732 28.9701 31.4909ZM28.0195 32.7214C28.0195 32.7214 26.4414 34.007 26.2064 34.7103C26.0297 33.832 26.4979 33.013 28.0195 32.7214ZM30.2331 33.1022C31.2178 32.9824 30.7202 34.2646 29.9531 34.8275C29.0748 35.4708 28.1955 35.6482 27.1439 35.3548C27.1439 35.3548 28.0772 33.8904 29.7155 33.2454C29.9203 33.165 30.0924 33.1193 30.2331 33.1022ZM59.5202 35.752C59.0418 35.752 58.9676 35.7552 58.5176 35.7552C58.3876 35.7585 58.2987 35.8825 58.332 36.0059C58.4787 36.5442 58.6917 37.9165 58.7617 39.4499H55.4154C55.312 39.4499 55.2251 39.5337 55.2201 39.6354L55.1322 40.5241C55.1255 40.6658 55.2477 40.7832 55.3893 40.7682L58.804 40.778C58.824 42.0347 58.8326 42.7895 58.7259 44.1178C58.7126 44.2062 58.7824 44.2821 58.8724 44.2871C59.4091 44.3204 59.7465 44.3619 59.9499 44.3652C60.0315 44.3669 60.0995 44.3037 60.1061 44.222C60.1378 43.7953 60.2161 42.4578 60.1777 40.7845L63.6445 40.7943C63.7529 40.7943 63.8398 40.7073 63.8398 40.599V39.6419C63.8448 39.5369 63.7545 39.4531 63.6478 39.4531H60.1256C60.0523 38.2881 59.9103 37.044 59.6536 35.8756C59.6403 35.8106 59.5868 35.757 59.5202 35.752ZM39.237 36.4876C38.7404 36.4622 39.2895 38.2378 39.377 38.6328C39.4936 39.1595 39.9629 41.1494 39.9629 41.9694C39.3779 41.0911 38.4391 39.334 37.6191 38.5156C36.7991 37.6956 36.5677 38.3984 36.5677 38.3984C36.5677 38.3984 35.7468 41.3821 35.9818 43.3138C36.2168 45.2455 37.2108 43.8988 37.2708 43.3138C37.3292 42.7288 37.4466 40.7968 37.4466 40.2702C37.9733 41.4402 38.7922 42.7892 39.4355 43.4342C40.0789 44.0776 40.7257 43.6677 40.959 43.0827C41.194 42.4977 41.9537 39.3365 40.1387 37.2298C39.6853 36.7032 39.4025 36.4961 39.237 36.4876ZM49.8001 37.5586C49.583 37.5161 49.2663 37.6367 49.2663 37.6367C49.2663 37.6367 46.2804 40.1525 47.5671 43.0208C46.6887 45.1858 45.2843 48.2884 47.3327 49.9284C47.8593 50.2784 47.6834 49.226 47.86 48.6393C48.0367 48.0527 48.6227 45.0713 49.2077 44.2513C50.6127 44.1346 53.1271 43.6064 53.5371 39.8014C53.7154 37.3431 51.4939 37.8684 50.6139 38.7467C49.7356 39.6251 48.2148 41.9108 48.2148 41.9108C48.3915 40.3891 48.7984 39.9787 49.735 38.457C50.135 37.807 50.0172 37.6011 49.8001 37.5586ZM33.1628 37.5781C32.0871 37.5781 30.7427 37.7521 29.6602 38.4538C28.6068 39.1554 28.8994 40.4462 29.4844 40.5046C30.0694 40.5629 33.0519 40.6792 33.7552 41.1458C34.4585 41.6125 34.6341 41.9666 33.8724 42.4349C33.1107 42.9032 31.4149 43.137 30.7116 42.9036C30.0099 42.6686 29.7765 41.44 31.0632 42.0833C32.3515 42.7267 34.6907 41.9655 33.1107 41.4388C31.5307 40.9121 30.2425 41.0328 29.4225 41.6178C28.6025 42.2028 29.718 43.4328 30.653 43.8411C31.5897 44.2495 33.3464 44.3673 34.3997 43.724C35.4531 43.0806 35.9792 40.6216 34.2826 40.2116C32.5842 39.8033 31.5302 39.8612 30.7702 39.7428C30.0085 39.6262 30.3622 39.3338 31.5905 39.2155C32.8188 39.0988 33.698 39.0405 34.7513 38.8672C35.8046 38.6905 35.8626 37.9289 35.0443 37.7539C35.0443 37.7539 34.2384 37.5781 33.1628 37.5781ZM45.9883 37.6953C45.1683 37.637 43.4115 37.8705 42.2415 38.1022C41.0715 38.3372 43.0033 39.2155 43.0033 39.2155C43.0033 39.2155 42.828 39.8016 42.5964 40.2116C41.8947 40.3283 41.9512 40.7364 42.1862 41.263C41.7179 42.4914 41.4857 44.0141 42.8307 44.4824C44.1774 44.9508 45.7551 43.7233 46.3984 43.1966C47.0418 42.6699 46.2817 42.1438 45.6367 42.2038C44.9934 42.2621 43.1204 42.5521 43.1204 42.5521L43.5306 41.3249C43.5306 41.3249 44.7589 41.3829 45.7539 41.2663C46.7489 41.1496 46.047 40.0391 45.6953 40.0391H44.0579L44.3509 39.2188C44.3509 39.2188 46.5138 39.1613 47.2155 39.043C47.9172 38.9263 46.8083 37.7536 45.9883 37.6953ZM27.3913 37.8613C27.2799 37.8942 27.1728 37.9886 27.0853 38.1641C27.0853 38.1641 26.7928 41.5587 26.9095 43.6654C26.9678 44.5437 28.3711 44.7178 28.3711 43.8411C28.3711 42.9628 28.3136 39.4501 28.1953 38.7467C28.1078 38.2205 27.7253 37.7627 27.3913 37.8613ZM52.4238 39.4076C52.7013 39.3691 52.7927 39.6918 52.4271 40.6803C51.8421 42.2603 49.8522 42.4967 49.8522 42.4967C49.8522 42.4967 51.1392 40.3897 51.7826 39.8047C52.0244 39.5853 52.2574 39.4306 52.4238 39.4076ZM14.3802 39.4499L14.2663 43.1966C14.2663 43.1966 12.2757 42.3752 11.1641 41.3802C10.0524 40.3852 10.403 40.2127 10.9297 40.0944C11.4564 39.9777 13.5035 39.4499 14.3802 39.4499Z" fill="#362F92"/>
</svg>
