<svg width="71" height="70" viewBox="0 0 71 70" fill="none" xmlns="http://www.w3.org/2000/svg">
<path d="M17.1667 0C7.98167 0 0.5 7.48167 0.5 16.6667V53.3333C0.5 62.5183 7.98167 70 17.1667 70H53.8333C63.0183 70 70.5 62.5183 70.5 53.3333V16.6667C70.5 7.48167 63.0183 0 53.8333 0H17.1667ZM17.1667 3.33333H53.8333C61.2183 3.33333 67.1667 9.28167 67.1667 16.6667V53.3333C67.1667 60.7183 61.2183 66.6667 53.8333 66.6667H17.1667C9.78167 66.6667 3.83333 60.7183 3.83333 53.3333V16.6667C3.83333 9.28333 9.78167 3.33333 17.1667 3.33333ZM14.4779 16.3704V34.5768H19.0286V27.7507H22.4401V34.5768H26.9941V16.3704H22.4401V23.1966H19.0286V16.3704H14.4779ZM28.1302 16.3704V34.5736H31.431H32.5312V34.5768H35.8288C39.1288 34.5768 41.3301 32.5544 41.3301 30.026C41.3301 29.4427 41.2455 28.8906 41.1055 28.3789C42.3088 31.9922 45.6951 34.5768 49.7318 34.5768C54.7868 34.5768 58.8333 30.5287 58.8333 25.472C58.8333 20.4153 54.7884 16.3704 49.7318 16.3704C45.7268 16.3704 42.3664 18.9138 41.138 22.4805C41.2564 21.9938 41.3301 21.4712 41.3301 20.9212C41.3301 18.3929 39.1288 16.3704 35.8288 16.3704H28.1302ZM32.681 20.9245H35.1712C35.9679 20.9245 36.6621 21.5854 36.6621 22.3438C36.6621 23.1021 35.9679 23.7695 35.1712 23.7695H32.681V20.9245ZM49.7285 20.9245C52.2768 20.9245 54.2826 22.9269 54.2826 25.4753C54.2826 28.0236 52.2768 30.026 49.7285 30.026C47.1802 30.026 45.1777 28.0236 45.1777 25.4753C45.1777 22.9269 47.1802 20.9245 49.7285 20.9245ZM49.7285 22.6855C48.1685 22.6855 46.9421 23.9103 46.9421 25.472C46.9421 27.0337 48.1685 28.2585 49.7285 28.2585C51.2885 28.2585 52.5182 27.0337 52.5182 25.472C52.5182 23.912 51.2885 22.6855 49.7285 22.6855ZM40.959 23.0566C40.7506 23.825 40.627 24.6337 40.627 25.472C40.627 26.3703 40.7597 27.2351 40.998 28.0534C40.4764 26.5251 39.3726 25.472 38.0293 25.472C39.401 25.4737 40.439 24.4933 40.959 23.0566ZM32.681 27.181H35.1712C35.9679 27.181 36.6621 27.8468 36.6621 28.6035C36.6621 29.3602 35.9679 30.026 35.1712 30.026H32.681V27.181ZM38.3678 35.9701C34.0778 35.9701 30.5911 39.9361 30.5911 44.8145C30.5911 49.6928 34.0795 53.6589 38.3678 53.6589C40.3845 53.6589 42.2189 52.7746 43.6022 51.3379V51.7513C43.6022 52.6313 44.314 53.3431 45.194 53.3431H46.7891V36.2793H45.194C44.314 36.2793 43.6022 36.9894 43.6022 37.8711V38.2845C42.2189 36.8528 40.3828 35.9701 38.3678 35.9701ZM47.0918 36.2826L52.4727 43.5742C53.0643 44.3776 53.0643 45.4727 52.4727 46.276L47.3392 53.2324H50.1484C50.8718 53.2324 51.5511 52.8879 51.9811 52.3079L54.901 48.3529C55.1744 47.9812 55.728 47.9812 56.0013 48.3529L58.9212 52.3079C59.3512 52.8896 60.0306 53.2324 60.7539 53.2324H63.5599L58.4297 46.276C57.838 45.4727 57.8364 44.3792 58.4264 43.5742L63.804 36.2826H60.998C60.2747 36.2826 59.5954 36.627 59.1654 37.207L56.0013 41.4941C55.728 41.8658 55.1744 41.8658 54.901 41.4941L51.7337 37.207C51.3037 36.6254 50.6276 36.2826 49.9043 36.2826H47.0918ZM23.4102 36.3965C22.9218 36.3798 22.4195 36.4169 21.9095 36.5169C20.4895 36.7919 19.2936 37.5778 18.4069 38.6328C16.9802 36.9811 14.7432 36.0419 12.3099 36.5169C9.27823 37.1086 7.19596 39.952 7.19596 43.0436V51.7546C7.19596 52.6346 7.91102 53.3464 8.79102 53.3464H10.3828V42.7865C10.3828 41.0198 11.8193 39.5801 13.5859 39.5801C15.3526 39.5801 16.7923 41.0181 16.7923 42.7865V51.7546C16.7923 52.6346 17.5074 53.3464 18.3874 53.3464H19.9759V42.7865C19.9759 41.0198 21.414 39.5801 23.1823 39.5801C24.949 39.5801 26.3887 41.0181 26.3887 42.7865V51.7546C26.3887 52.6346 27.1021 53.3464 27.9837 53.3464H29.5755V42.7865C29.5805 39.3381 26.8318 36.5165 23.4102 36.3965ZM38.3678 39.1536C40.8995 39.1536 42.9642 41.6911 42.9642 44.8145C42.9642 47.9378 40.9028 50.472 38.3678 50.472C35.8328 50.472 33.778 47.9378 33.778 44.8145C33.778 41.6928 35.8362 39.1536 38.3678 39.1536Z" fill="#362F92"/>
</svg>
