<svg width="71" height="70" viewBox="0 0 71 70" fill="none" xmlns="http://www.w3.org/2000/svg">
<path d="M8.83333 0C4.25081 0 0.5 3.75081 0.5 8.33333V61.6667C0.5 66.2492 4.25081 70 8.83333 70H62.1667C66.7492 70 70.5 66.2492 70.5 61.6667V8.33333C70.5 3.75081 66.7492 0 62.1667 0H8.83333ZM8.83333 3.33333H62.1667C64.9475 3.33333 67.1667 5.55253 67.1667 8.33333V61.6667C67.1667 64.4475 64.9475 66.6667 62.1667 66.6667H8.83333C6.05253 66.6667 3.83333 64.4475 3.83333 61.6667V8.33333C3.83333 5.55253 6.05253 3.33333 8.83333 3.33333ZM22.1667 10C21.9437 10.0004 21.7231 10.0456 21.5179 10.1328C21.3127 10.2201 21.127 10.3476 20.972 10.5078C20.8942 10.5864 20.8244 10.6726 20.7637 10.765V10.7682C20.5917 11.0364 20.5002 11.3481 20.5 11.6667V60C20.5001 60.242 20.5528 60.481 20.6546 60.7006C20.7563 60.9201 20.9047 61.1149 21.0893 61.2713C21.2739 61.4277 21.4904 61.5421 21.7236 61.6064C21.9569 61.6708 22.2014 61.6836 22.4401 61.6439L32.4401 59.9772C32.8293 59.9124 33.183 59.7117 33.4381 59.4107C33.6932 59.1097 33.8333 58.7279 33.8333 58.3333V49.2871L37.1536 58.584C37.2058 58.918 37.3582 59.2282 37.5908 59.4736C37.8233 59.7189 38.125 59.8878 38.4557 59.9577C38.4902 59.9653 38.525 59.9718 38.5599 59.9772L48.5599 61.6439C48.6149 61.6532 48.6703 61.6597 48.7259 61.6634C48.7812 61.6673 48.8366 61.6683 48.8919 61.6667C49.3237 61.6514 49.7327 61.4691 50.0327 61.1582C50.3327 60.8473 50.5002 60.432 50.5 60V11.6667C50.5 11.2247 50.3243 10.8008 50.0118 10.4882C49.6992 10.1757 49.2753 10 48.8333 10H38.8333C38.3913 10 37.9674 10.1757 37.6549 10.4882C37.3423 10.8008 37.1667 11.2247 37.1667 11.6667V21.0547L33.8268 11.3704C33.7592 10.9984 33.567 10.6603 33.2819 10.4119C32.9968 10.1635 32.6356 10.0194 32.2578 10.0033C32.2275 10.0013 32.1971 10.0003 32.1667 10H22.1667ZM24.5299 13.3333H30.9785L37.222 31.4421C37.2439 31.5255 37.2722 31.6071 37.3066 31.6862L46.3431 57.8939L40.0736 56.849L33.7747 39.2155C33.7513 39.1285 33.7208 39.0436 33.6836 38.9616L24.5299 13.3333ZM40.5 13.3333H47.1667V50.0553L40.5 30.7194V13.3333ZM23.8333 21.2858L30.5 39.9544V56.9206L23.8333 58.0339V21.2858Z" fill="#362F92"/>
</svg>
