<svg width="71" height="70" viewBox="0 0 71 70" fill="none" xmlns="http://www.w3.org/2000/svg">
<path d="M15.5 0C7.23 0 0.5 6.72833 0.5 15V55C0.5 63.2717 7.23 70 15.5 70H55.5C63.77 70 70.5 63.2717 70.5 55V15C70.5 6.72833 63.77 0 55.5 0H15.5ZM15.5 3.33333H55.5C61.9333 3.33333 67.1667 8.56833 67.1667 15V55C67.1667 61.4317 61.9333 66.6667 55.5 66.6667H15.5C9.06667 66.6667 3.83333 61.4317 3.83333 55V15C3.83333 8.56833 9.06667 3.33333 15.5 3.33333ZM32.0723 12.972C31.1556 12.972 30.6172 13.4184 30.5488 14.2318C30.5038 15.0568 30.986 15.5374 31.6393 15.6641C31.891 15.7091 32.1526 15.7091 32.4043 15.6641C33.001 15.5724 33.4498 15.0904 33.4948 14.4954C33.5515 13.7971 33.231 13.2568 32.6126 13.0501C32.441 12.9935 32.2556 12.9603 32.0723 12.972ZM18.5078 16.8066C17.6091 16.8039 16.7783 17.104 16.0046 17.679C15.9362 17.7474 15.8553 17.8066 15.7637 17.8516C15.7403 17.8399 15.7214 17.8274 15.7214 17.8158C15.6864 17.7008 15.662 17.5857 15.627 17.4707C15.5353 17.184 15.421 17.0801 15.1126 17.0801C14.7693 17.0801 14.4143 17.0917 14.071 17.0801C13.8076 17.0684 13.5674 17.1062 13.3841 17.3112C13.3841 21.3195 13.3855 25.3393 13.3971 29.3359C13.5455 29.5759 13.7751 29.621 14.0384 29.6094C14.4501 29.5977 14.8637 29.6094 15.2754 29.6094C15.9971 29.6094 15.998 29.6097 15.998 28.8997V25.638C15.998 25.558 15.9604 25.4655 16.0404 25.3971C16.6137 25.8438 17.3141 26.1198 18.0358 26.1882C19.0441 26.2915 19.9595 26.0399 20.7279 25.3516C21.2895 24.8366 21.7009 24.1708 21.9193 23.4375C22.2259 22.5025 22.2467 21.5509 22.1667 20.5892C22.1217 19.9942 21.9607 19.4088 21.7207 18.8704C21.2507 17.8854 20.5274 17.1625 19.429 16.9108C19.114 16.8421 18.8074 16.8076 18.5078 16.8066ZM40.9395 16.8132C40.6532 16.8132 40.3667 16.8435 40.0801 16.901C39.3351 17.0377 38.6723 17.3672 38.0423 17.7572C37.9623 17.8038 37.8936 17.8841 37.7786 17.8841C37.722 17.7124 37.6888 17.5623 37.6322 17.4023C37.5622 17.209 37.4352 17.0833 37.2285 17.0833H35.7995C35.6628 17.0833 35.5222 17.1648 35.4772 17.3014C35.4539 17.3931 35.4447 17.4865 35.4447 17.5781V25.5241C35.4447 25.9124 35.5443 26.0286 35.946 26.0286H37.4824C37.9058 26.0286 37.9967 25.9377 37.9967 25.5143V19.4076C37.9751 19.3159 38.032 19.2128 38.1237 19.1895C38.7437 18.8911 39.4422 18.7538 40.1289 18.7988C40.5189 18.8205 40.8497 19.0957 40.9297 19.4857C40.9747 19.679 40.9883 19.8864 40.9883 20.0814V25.498C40.9883 25.9214 41.0793 26.0254 41.5026 26.0254H42.7135C42.8969 26.0254 43.0692 26.024 43.2409 26.0124C43.4009 26.0124 43.5273 25.8989 43.5273 25.7389C43.5507 25.6256 43.5501 25.5219 43.5501 25.4069V19.3848C43.5385 19.2931 43.5952 19.1998 43.6868 19.1764C44.3052 18.8898 44.9845 18.7538 45.6595 18.7988C46.0262 18.8222 46.3458 19.0721 46.4375 19.4271C46.4942 19.6337 46.5175 19.8403 46.5059 20.0586V25.3613C46.5059 25.488 46.5053 25.6123 46.5286 25.7389C46.552 25.8756 46.6654 25.9909 46.8021 26.0026C46.8937 26.0143 46.9871 26.0156 47.0788 26.0156H48.4753C48.9903 26.0156 49.0579 25.9479 49.0579 25.4329V19.4987C49.0579 19.3604 49.0598 19.238 49.0482 19.1113C49.0015 18.5163 48.8386 17.9662 48.4036 17.5195C47.9453 17.0395 47.3512 16.8547 46.6979 16.8197C45.7929 16.7747 44.8987 16.9809 44.097 17.3926C43.787 17.5526 43.4917 17.7352 43.2051 17.9069C43.1934 17.8836 43.1803 17.886 43.1953 17.8743C43.172 17.851 43.1503 17.828 43.127 17.793C42.8186 17.3346 42.3372 17.016 41.7988 16.901C41.5122 16.8435 41.2257 16.8132 40.9395 16.8132ZM55.4772 16.8913C55.0951 16.854 54.7115 16.86 54.3281 16.9108C52.5181 17.1175 51.3378 18.1154 50.7995 19.8438C50.4211 21.0238 50.4684 22.2263 50.7767 23.418C51.1784 24.9413 52.1863 25.8454 53.7096 26.1654C54.5796 26.3604 55.4584 26.3248 56.3301 26.1882C56.7884 26.1082 57.2492 25.992 57.6842 25.8203C57.9476 25.717 58.0865 25.5588 58.0749 25.2604C58.0632 24.9854 58.0749 24.6991 58.0749 24.4141C58.0749 24.0707 57.9362 23.9662 57.6029 24.0462C57.2695 24.1262 56.9515 24.1943 56.6198 24.2643C55.9098 24.4127 55.1748 24.4121 54.4648 24.2871C53.4915 24.0921 52.862 23.2582 52.9186 22.2266C53.0203 22.2382 53.1343 22.2488 53.2376 22.2721C54.096 22.4321 54.9785 22.4446 55.8385 22.3079C56.3419 22.2396 56.8242 22.089 57.2708 21.849C57.7858 21.5506 58.1623 21.1397 58.3223 20.5664C58.7239 19.1231 58.1035 17.6656 56.6035 17.1289C56.2368 17.0089 55.8593 16.9286 55.4772 16.8913ZM29.2109 16.9922C28.4659 16.9355 27.7226 17.1654 27.1276 17.6237C26.8976 17.8054 26.68 17.9997 26.4733 18.2064C26.4266 18.2747 26.358 18.3198 26.278 18.3431C26.2097 18.0348 26.1416 17.7475 26.0599 17.4642C25.9799 17.1775 25.8439 17.0736 25.5456 17.0736H24.4453C23.9186 17.0736 23.8626 17.1328 23.8626 17.6595V25.446C23.8626 25.5376 23.8607 25.631 23.8724 25.7227C23.8841 25.8727 24.0008 25.9974 24.1491 26.0091C24.2291 26.0208 24.3197 26.0189 24.3997 26.0189H25.8906C25.9706 26.0189 26.0613 26.0208 26.1413 26.0091C26.2896 26.0091 26.4063 25.8938 26.418 25.7454C26.4296 25.6421 26.4277 25.5493 26.4277 25.446V19.9512C26.4277 19.8245 26.4272 19.7084 26.5872 19.6517C27.3089 19.4117 28.0536 19.2643 28.8203 19.3327C28.9803 19.3443 29.1323 19.3541 29.2923 19.3424C29.4973 19.3191 29.5793 19.2399 29.6243 19.0332C29.6477 18.8732 29.6588 18.7245 29.6471 18.5645C29.6471 18.1745 29.6574 17.7728 29.6341 17.3828C29.6124 17.0961 29.5093 17.0039 29.2109 16.9922ZM31.1348 17.0703C30.8598 17.082 30.7558 17.1859 30.7441 17.4609V21.5267C30.7441 22.8334 30.746 24.1369 30.7344 25.4069C30.7344 25.4986 30.7325 25.5919 30.7441 25.6836C30.7558 25.8453 30.8934 25.9714 31.0534 25.9831C31.1101 25.9947 31.1595 25.9928 31.2161 25.9928H32.8079C32.8763 25.9928 32.9349 25.9947 33.0033 25.9831C33.1516 25.9714 33.265 25.8677 33.2767 25.7194C33.2884 25.5927 33.2995 25.4652 33.2995 25.3385V17.7148C33.2995 17.6115 33.3014 17.5187 33.2897 17.4154C33.2664 17.152 33.1852 17.0703 32.9219 17.0703C32.3269 17.0586 31.7298 17.0586 31.1348 17.0703ZM54.9694 18.6523C55.1761 18.664 55.3799 18.7091 55.5749 18.7891C55.8732 18.9157 56.0672 19.1917 56.1022 19.5117C56.1372 19.7067 56.1247 19.9141 56.0664 20.1074C55.9297 20.5191 55.5973 20.6898 55.1973 20.7715C54.9573 20.8281 54.7052 20.8502 54.4518 20.8268C54.0052 20.8268 53.5476 20.7942 53.1009 20.7259C52.9292 20.7042 52.9278 20.7042 52.9512 20.5208C52.9862 20.2458 53.0659 19.9815 53.1693 19.7298C53.5126 18.8932 54.2361 18.6073 54.9694 18.6523ZM17.6712 18.75C17.8389 18.7517 18.0106 18.7679 18.1823 18.8021C18.664 18.8704 19.0745 19.179 19.2695 19.6257C19.4412 19.9923 19.5457 20.3926 19.569 20.7943C19.6373 21.5259 19.6357 22.2607 19.429 22.959C19.349 23.314 19.1683 23.632 18.9049 23.8737C18.6066 24.1254 18.2386 24.2773 17.8503 24.2773C17.2669 24.3123 16.6921 24.1845 16.1771 23.9095C16.0504 23.8528 15.9701 23.7272 15.9818 23.5905V21.5169C15.9818 20.8303 15.9934 20.143 15.9818 19.4564C15.9701 19.2964 16.0646 19.1582 16.2129 19.1016C16.6854 18.8778 17.1683 18.7448 17.6712 18.75ZM24.7318 29.8828C24.6468 29.8711 24.5613 29.8825 24.4746 29.8958C23.7496 29.9575 23.2212 30.4594 23.1595 31.1361C23.0862 31.9827 23.4786 32.5722 24.2402 32.7572C24.3752 32.7805 24.5089 32.806 24.6439 32.806C25.6389 32.831 26.3893 32.2674 26.291 31.1491C26.2677 30.6324 25.9377 30.1915 25.4577 30.0065C25.2243 29.9082 24.9768 29.8578 24.7318 29.8828ZM35.0052 29.9674C34.5385 29.9674 34.4518 30.0542 34.4518 30.5208V34.502C34.4518 34.5886 34.4874 34.6757 34.4258 34.7624C34.3158 34.7507 34.2553 34.674 34.1686 34.6256C32.8903 33.8756 31.5506 33.7418 30.1973 34.3685C29.2506 34.8102 28.6632 35.611 28.2832 36.556C27.9149 37.466 27.8253 38.4245 27.8503 39.3945C27.8503 40.3045 28.0588 41.1985 28.4655 42.0085C28.9322 42.9051 29.6111 43.595 30.5944 43.89C31.9344 44.3083 33.1865 44.0986 34.3281 43.252C34.4148 43.2036 34.4623 43.1174 34.5723 43.0924C34.6339 43.2274 34.684 43.3755 34.709 43.5221C34.7573 43.7188 34.9303 43.8542 35.1387 43.8542H35.4349C35.8766 43.8542 36.3053 43.8658 36.737 43.8542C37.0803 43.8542 37.1794 43.7421 37.1927 43.3854V30.4362C37.181 30.0545 37.0825 29.9674 36.7142 29.9674H35.0052ZM53.7812 33.9779C53.3898 33.9641 52.9962 33.9886 52.6029 34.0495C50.9445 34.2945 49.7518 35.178 49.1751 36.7513C48.6101 38.2513 48.6231 39.8982 49.1881 41.3965C49.6798 42.7598 50.6622 43.6229 52.0755 43.9779C52.8255 44.1629 53.6101 44.2116 54.3835 44.1016C56.9635 43.7949 58.0334 41.8382 58.2051 40.1432C58.2051 40.1432 58.2669 39.6344 58.2669 39.401L58.2539 38.3724C58.2656 38.2324 58.2181 37.9446 58.2181 37.9329C58.1931 37.6996 58.1463 37.4645 58.0846 37.2428C57.6296 35.6212 56.6082 34.5508 54.9499 34.1341C54.5624 34.0416 54.1727 33.9916 53.7812 33.9779ZM43.5827 34.0853C41.5177 34.1336 39.9453 35.1778 39.3053 37.2428C38.8753 38.6062 38.9375 39.9973 39.3542 41.3607C39.7842 42.7623 40.7699 43.6092 42.1699 43.9909C42.7716 44.1376 43.3974 44.1998 44.0124 44.1764C44.909 44.1648 45.804 43.9902 46.6523 43.6719C47.009 43.5369 47.0951 43.4139 47.0951 43.0339V42.1484C47.0834 41.7918 46.9341 41.6679 46.5775 41.7546C46.3075 41.8279 46.0499 41.8915 45.7799 41.9531C44.9566 42.1498 44.0971 42.1844 43.2604 42.0378C42.4254 41.8778 41.8593 41.3998 41.6393 40.5631C41.5777 40.3181 41.5276 40.0728 41.5026 39.8145C41.5643 39.8145 41.6268 39.8122 41.6751 39.8372C42.4885 39.9822 43.3127 40.0454 44.1361 39.9837C44.8494 39.9354 45.5599 39.7997 46.1999 39.4564C46.8515 39.1364 47.3051 38.5323 47.4401 37.819C47.5268 37.3773 47.5287 36.9098 47.4303 36.4681C47.172 35.3614 46.472 34.6763 45.4154 34.3197C44.8254 34.1347 44.1977 34.0603 43.5827 34.0853ZM12.86 34.2806C12.6134 34.2806 12.5271 34.4034 12.5638 34.6484C12.6005 34.8084 12.6532 34.9835 12.7266 35.1302C13.4649 37.0719 14.2132 39.001 14.9499 40.931C15.2565 41.741 15.5774 42.564 15.8841 43.3756C16.0191 43.719 16.2381 43.8886 16.6198 43.877C17.1598 43.8653 17.7009 43.8653 18.2409 43.877C18.5126 43.902 18.7695 43.7316 18.8561 43.4733C18.8811 43.3983 18.919 43.3253 18.944 43.252C19.7673 41.1136 20.5914 38.9645 21.4147 36.8262L22.1504 34.873C22.3104 34.4297 22.2102 34.2936 21.7435 34.2936H19.8783C19.6566 34.2936 19.4451 34.4268 19.3835 34.6484L19.3118 34.873C18.7468 36.778 18.1809 38.6679 17.6159 40.5729C17.5409 40.8179 17.4679 41.0538 17.3945 41.2988C17.3712 41.2988 17.3568 41.2975 17.3685 41.2858C16.8635 39.5775 16.3744 37.8574 15.8711 36.1491C15.7228 35.6824 15.5862 35.203 15.4512 34.7363C15.3778 34.478 15.2449 34.2806 14.9499 34.2806C14.2632 34.2806 13.56 34.2689 12.86 34.2806ZM23.8366 34.2936C23.4549 34.2936 23.3535 34.4035 23.3418 34.7852V43.2878C23.3418 43.3611 23.3432 43.4488 23.3548 43.5221C23.3798 43.7555 23.4907 43.877 23.7357 43.877C24.399 43.8886 25.0515 43.8886 25.7148 43.877C25.9615 43.8653 26.0707 43.7541 26.0957 43.5091V39.0853V34.7852C26.0957 34.4035 25.9858 34.2936 25.6042 34.2936H23.8366ZM43.3353 35.9701C43.5012 35.9549 43.6749 35.9578 43.8529 35.9766C43.9145 35.9766 43.9605 36.0026 44.0221 36.0026C44.8821 36.1376 45.0919 36.8236 44.9336 37.487C44.8103 37.9786 44.4055 38.1637 43.9505 38.2487C43.7055 38.297 43.4471 38.3222 43.1888 38.3105C42.6855 38.2989 42.1928 38.2618 41.7012 38.1868C41.5912 38.1752 41.5444 38.1292 41.5677 38.0176C41.6544 37.5376 41.7642 37.0698 42.0592 36.6764C42.4005 36.2252 42.8375 36.0154 43.3353 35.9701ZM32.362 36.0742C33.0136 36.0126 33.6649 36.1362 34.2533 36.4062C34.3999 36.4546 34.4863 36.6011 34.4746 36.7611C34.4513 37.5244 34.4648 38.2621 34.4648 39.0104V41.2467C34.4898 41.3934 34.4045 41.5318 34.2695 41.5918C33.6795 41.9235 33.0042 42.058 32.3392 41.9596C31.7742 41.898 31.2824 41.5564 31.0241 41.0514C30.8274 40.6581 30.7157 40.2379 30.679 39.8079C30.5807 39.0329 30.6422 38.2467 30.8255 37.4967C30.8872 37.2884 30.9629 37.0945 31.0729 36.8978C31.3312 36.4178 31.822 36.1109 32.362 36.0742ZM53.293 36.1361C53.5263 36.1111 53.7595 36.1089 53.9928 36.1589C54.4845 36.2572 54.891 36.5779 55.1126 37.0312C55.321 37.4613 55.4424 37.9429 55.4674 38.4212C55.4791 38.6429 55.4938 38.8604 55.4805 39.082C55.5155 39.6254 55.4546 40.1542 55.3079 40.6576C55.2346 40.9159 55.1212 41.1488 54.9629 41.3704C54.6929 41.7521 54.2642 41.9978 53.7975 42.0345C53.5642 42.0595 53.331 42.0585 53.0977 42.0085C52.581 41.9101 52.1504 41.5672 51.9421 41.0872C51.7571 40.7056 51.6467 40.2914 51.61 39.873C51.5484 39.148 51.536 38.4217 51.7077 37.7083C51.7693 37.425 51.893 37.1445 52.0397 36.8978C52.3097 36.4561 52.7763 36.1727 53.293 36.1361ZM53.293 47.7669C52.5946 47.7869 51.9075 47.8548 51.2292 47.9948C50.3508 48.2048 49.5228 48.5244 48.7845 49.0527C48.6645 49.1227 48.5618 49.2227 48.4818 49.3327C48.4118 49.451 48.3825 49.5708 48.4525 49.6908C48.5225 49.8108 48.6447 49.8212 48.7747 49.8112L49.9792 49.6615C50.8875 49.5415 51.805 49.501 52.7233 49.541C53.0533 49.561 53.3703 49.6201 53.6803 49.7201C54.0087 49.82 54.2302 50.1092 54.2402 50.4492C54.2602 50.6492 54.2505 50.8482 54.2305 51.0482C54.1605 51.5982 54.0487 52.1377 53.8887 52.666C53.6187 53.6343 53.2816 54.5597 52.9316 55.498C52.8916 55.598 52.8733 55.6975 52.8633 55.7975C52.8733 55.9875 52.9923 56.0884 53.1823 56.0384C53.3023 55.9984 53.4113 55.9298 53.5013 55.8398C53.9496 55.4215 54.3369 54.9391 54.6569 54.4108C55.5352 52.9441 56.0666 51.2998 56.1966 49.5931C56.2166 49.3031 56.2041 49.0137 56.1641 48.7337C56.1341 48.4954 55.9872 48.2768 55.7572 48.1868C55.5888 48.1068 55.4196 48.048 55.2396 47.998C54.6012 47.828 53.9513 47.7869 53.293 47.7669ZM15.0768 48.278C15.007 48.2945 14.9413 48.3312 14.8913 48.3854C14.7913 48.4937 14.7629 48.6426 14.8229 48.7826C14.8629 48.8825 14.9317 48.9827 15.0117 49.0527C15.3517 49.3727 15.6806 49.6933 16.0306 50.0033C19.7823 53.3249 24.0815 55.6081 28.9798 56.7448C30.3965 57.0731 31.8428 57.2923 33.2995 57.4023C33.8495 57.4423 34.3983 57.4635 34.9466 57.4935C35.3449 57.4835 35.7462 57.4835 36.1445 57.4935C37.7312 57.4335 39.3062 57.2624 40.8678 56.9824C43.5812 56.4741 46.2153 55.5859 48.6803 54.3392C49.987 53.6809 51.2251 52.8938 52.3717 51.9954C52.5117 51.8971 52.6205 51.7678 52.7005 51.6178C52.7205 51.5778 52.7426 51.5276 52.7526 51.4876C52.8326 51.1576 52.6334 50.8189 52.3034 50.7389C52.1034 50.6889 51.8844 50.7171 51.7044 50.8171C50.4961 51.3754 49.2602 51.8571 47.9935 52.2754C45.5885 53.0737 43.1045 53.6416 40.5911 53.9616C39.5145 54.1016 38.4356 54.2018 37.349 54.2318C35.334 54.3018 33.309 54.2116 31.304 53.9616C29.9074 53.7816 28.5205 53.5329 27.1439 53.2129C23.0422 52.2562 19.1305 50.6395 15.5488 48.4245C15.4688 48.3745 15.3784 48.3343 15.2884 48.2943C15.2192 48.2643 15.1466 48.2615 15.0768 48.278Z" fill="#362F92"/>
</svg>
