<svg width="71" height="70" viewBox="0 0 71 70" fill="none" xmlns="http://www.w3.org/2000/svg">
<path d="M8.83333 0C4.25081 0 0.5 3.75081 0.5 8.33333V61.6667C0.5 66.2492 4.25081 70 8.83333 70H62.1667C66.7492 70 70.5 66.2492 70.5 61.6667V8.33333C70.5 3.75081 66.7492 0 62.1667 0H8.83333ZM8.83333 3.33333H62.1667C64.9475 3.33333 67.1667 5.55253 67.1667 8.33333V61.6667C67.1667 64.4475 64.9475 66.6667 62.1667 66.6667H8.83333C6.05253 66.6667 3.83333 64.4475 3.83333 61.6667V8.33333C3.83333 5.55253 6.05253 3.33333 8.83333 3.33333ZM18.8333 6.66667C19.5233 8.355 22.8367 15.6352 23.8333 18.3236V25H27.1667V18.3333L32.1667 6.66667H28.166L25.5 13.3333L22.834 6.66667H18.8333ZM35.5 11.6667C33.8233 11.6667 32.5483 12.1255 31.6133 13.2422C30.8916 14.0672 30.5033 15.3904 30.5033 17.1354L30.5 19.5443C30.5 21.2793 30.8428 22.4792 31.5645 23.2975C32.5011 24.4092 34.0183 25 35.5 25C36.9817 25 38.5265 24.4093 39.4648 23.2943C40.1748 22.4776 40.5 21.2793 40.5 19.5443V17.1257C40.5 15.379 40.0967 14.0672 39.3867 13.2422C38.4501 12.1255 36.9817 11.6667 35.5 11.6667ZM42.1667 11.6667V21.3965C42.1667 22.4965 42.3305 23.244 42.5638 23.724C42.9471 24.5123 43.7147 24.9162 44.8164 24.9512C46.3347 25.0012 47.475 24.0167 48.8333 22.7083V25H52.1667V11.6667H48.8333V20.625C48.075 21.5233 47.2023 22.321 46.5156 22.321C46.0606 22.321 45.5833 22.1117 45.5 21.6667V11.6667H42.1667ZM35.5 14.3652C36.42 14.3652 37.1667 15.1277 37.1667 16.0677V20.7454C37.1667 21.6838 36.42 22.4479 35.5 22.4479C34.58 22.4479 33.8333 21.6854 33.8333 20.7454V16.0677C33.8333 15.1294 34.58 14.3652 35.5 14.3652ZM35.4837 30C35.4837 30 24.3013 30.0005 16.8346 30.5339C15.7846 30.6505 13.5164 30.6673 11.4831 32.7506C9.88307 34.3173 9.36719 37.9167 9.36719 37.9167C9.36719 37.9167 8.83333 40.4676 8.83333 44.6842V48.6328C8.83333 52.8495 9.36719 55.4004 9.36719 55.4004C9.36719 55.4004 9.88307 58.9993 11.4831 60.5827C13.5164 62.6493 16.1819 62.5828 17.3652 62.7995C21.6319 63.1995 35.5 63.3333 35.5 63.3333C35.5 63.3333 46.6987 63.3165 54.1654 62.7832C55.2154 62.6665 57.4836 62.6497 59.5169 60.5664C61.1169 58.9997 61.6328 55.4004 61.6328 55.4004C61.6328 55.4004 62.1667 52.8495 62.1667 48.6328V44.6842C62.1667 40.4676 61.6328 37.9167 61.6328 37.9167C61.6328 37.9167 61.1169 34.3173 59.5169 32.7506C57.4836 30.6673 55.2154 30.6505 54.1654 30.5339C46.6987 30.0005 35.5163 30 35.5163 30H35.4837ZM13.8333 36.6667H23.8333V40H20.5V56.6667H17.1667V40H13.8333V36.6667ZM35.5 36.6667H38.8333V43.9681C40.0833 42.5014 40.7486 41.65 42.3652 41.6667C43.6319 41.6833 44.6504 42.4012 45.0671 43.7012C45.2837 44.4012 45.5 45.6514 45.5 47.3014V51.8848C45.4833 53.3514 45.3322 54.0005 45.1322 54.7005C44.7155 56.0005 43.6319 56.6667 42.3652 56.6667C41.2486 56.6667 39.8833 55.8833 38.8333 54.5833V56.6667H35.5V36.6667ZM23.8333 41.6667H27.1667V53.151C27.25 53.6344 27.5992 53.8151 28.0326 53.8151C28.6992 53.8151 29.7667 53.0826 30.5 52.1159V41.6667H33.8333V56.6667H30.5V54.3848C29.1833 55.8181 27.6151 56.6667 26.3984 56.6667C25.3318 56.6667 24.5841 56.2016 24.2174 55.3516C24.0008 54.8182 23.8333 54.0158 23.8333 52.8158V41.6667ZM52.2155 41.6667C53.8655 41.6667 55.1823 42.1999 56.099 43.1999C56.7823 43.9332 57.1667 45.0674 57.1667 46.6341V50H50.5V53.0013C50.5 53.768 51.25 54.401 52.1667 54.401C53.0833 54.401 53.8333 53.768 53.8333 53.0013V51.6667H57.1667C57.1667 52.5167 57.0661 53.2327 57.0495 53.4993C56.9328 54.0827 56.6682 54.618 56.2682 55.0846C55.3682 56.1513 54.0168 56.6667 52.3001 56.6667C50.5668 56.6667 49.2658 56.166 48.3158 55.166C47.6158 54.4493 47.1667 53.3501 47.1667 51.8001V46.6992C47.1667 45.1325 47.5665 43.9332 48.2832 43.1999C49.2332 42.1999 50.5322 41.6667 52.2155 41.6667ZM52.1667 44.082C51.25 44.082 50.5 44.6984 50.5 45.4818V47.6823H53.8333V45.4818C53.8333 44.6984 53.0833 44.082 52.1667 44.082ZM40.8678 44.5833C40.6095 44.5833 40.2326 44.713 39.8555 44.9089C39.6669 45.0068 39.4773 45.1207 39.3021 45.2441C39.1268 45.3676 38.9667 45.5014 38.8333 45.6348V52.9167C38.9667 53.05 39.1268 53.1734 39.3021 53.2812C39.8279 53.6047 40.4803 53.7988 40.8678 53.7988C41.2053 53.7988 41.4697 53.7166 41.6719 53.5189C41.7393 53.453 41.801 53.3734 41.8542 53.2812C41.9604 53.0969 42.037 52.8577 42.0885 52.5553C42.1401 52.253 42.1667 51.8861 42.1667 51.4486V46.8848C42.1667 46.4473 42.1401 46.0822 42.0885 45.7845C41.9854 45.1892 41.7786 44.8551 41.4505 44.6973C41.2865 44.6184 41.0928 44.5833 40.8678 44.5833Z" fill="#362F92"/>
</svg>
